<?xml version="1.0" encoding="UTF-8" standalone="no"?>
<!DOCTYPE svg PUBLIC "-//W3C//DTD SVG 1.1//EN"
 "http://www.w3.org/Graphics/SVG/1.1/DTD/svg11.dtd">
<!-- Generated by graphviz version 2.43.0 (0)
 -->
<!-- Title: %3 Pages: 1 -->
<svg width="594pt" height="404pt"
 viewBox="0.00 0.00 593.83 404.00" xmlns="http://www.w3.org/2000/svg" xmlns:xlink="http://www.w3.org/1999/xlink">
<g id="graph0" class="graph" transform="scale(1 1) rotate(0) translate(4 400)">
<title>%3</title>
<polygon fill="white" stroke="transparent" points="-4,4 -4,-400 589.83,-400 589.83,4 -4,4"/>
<!-- [root] aws_instance.secondserver -->
<g id="node1" class="node">
<title>[root] aws_instance.secondserver</title>
<polygon fill="none" stroke="black" points="544.91,-252 377.47,-252 377.47,-216 544.91,-216 544.91,-252"/>
<text text-anchor="middle" x="461.19" y="-229.8" font-family="Times,serif" font-size="14.00">aws_instance.secondserver</text>
</g>
<!-- [root] aws_subnet.subnet2 -->
<g id="node4" class="node">
<title>[root] aws_subnet.subnet2</title>
<polygon fill="none" stroke="black" points="422.56,-180 293.81,-180 293.81,-144 422.56,-144 422.56,-180"/>
<text text-anchor="middle" x="358.19" y="-157.8" font-family="Times,serif" font-size="14.00">aws_subnet.subnet2</text>
</g>
<!-- [root] aws_instance.secondserver&#45;&gt;[root] aws_subnet.subnet2 -->
<g id="edge1" class="edge">
<title>[root] aws_instance.secondserver&#45;&gt;[root] aws_subnet.subnet2</title>
<path fill="none" stroke="black" d="M435.99,-215.88C422.77,-206.89 406.4,-195.76 392.08,-186.03"/>
<polygon fill="black" stroke="black" points="393.72,-182.92 383.48,-180.19 389.78,-188.71 393.72,-182.92"/>
</g>
<!-- [root] data.aws_ami.latest&#45;ubuntu -->
<g id="node6" class="node">
<title>[root] data.aws_ami.latest&#45;ubuntu</title>
<polygon fill="none" stroke="black" points="546.87,-108 377.51,-108 377.51,-72 546.87,-72 546.87,-108"/>
<text text-anchor="middle" x="462.19" y="-85.8" font-family="Times,serif" font-size="14.00">data.aws_ami.latest&#45;ubuntu</text>
</g>
<!-- [root] aws_instance.secondserver&#45;&gt;[root] data.aws_ami.latest&#45;ubuntu -->
<g id="edge2" class="edge">
<title>[root] aws_instance.secondserver&#45;&gt;[root] data.aws_ami.latest&#45;ubuntu</title>
<path fill="none" stroke="black" d="M461.31,-215.87C461.48,-191.67 461.79,-147.21 462,-118.39"/>
<polygon fill="black" stroke="black" points="465.5,-118.21 462.07,-108.19 458.5,-118.16 465.5,-118.21"/>
</g>
<!-- [root] aws_security_group.subnetsecurity -->
<g id="node2" class="node">
<title>[root] aws_security_group.subnetsecurity</title>
<polygon fill="none" stroke="black" points="359.81,-252 146.57,-252 146.57,-216 359.81,-216 359.81,-252"/>
<text text-anchor="middle" x="253.19" y="-229.8" font-family="Times,serif" font-size="14.00">aws_security_group.subnetsecurity</text>
</g>
<!-- [root] aws_vpc.environment&#45;example&#45;two -->
<g id="node5" class="node">
<title>[root] aws_vpc.environment&#45;example&#45;two</title>
<polygon fill="none" stroke="black" points="359.68,-108 142.7,-108 142.7,-72 359.68,-72 359.68,-108"/>
<text text-anchor="middle" x="251.19" y="-85.8" font-family="Times,serif" font-size="14.00">aws_vpc.environment&#45;example&#45;two</text>
</g>
<!-- [root] aws_security_group.subnetsecurity&#45;&gt;[root] aws_vpc.environment&#45;example&#45;two -->
<g id="edge3" class="edge">
<title>[root] aws_security_group.subnetsecurity&#45;&gt;[root] aws_vpc.environment&#45;example&#45;two</title>
<path fill="none" stroke="black" d="M252.95,-215.87C252.61,-191.67 251.98,-147.21 251.57,-118.39"/>
<polygon fill="black" stroke="black" points="255.07,-118.14 251.43,-108.19 248.07,-118.24 255.07,-118.14"/>
</g>
<!-- [root] aws_subnet.subnet1 -->
<g id="node3" class="node">
<title>[root] aws_subnet.subnet1</title>
<polygon fill="none" stroke="black" points="128.56,-252 -0.19,-252 -0.19,-216 128.56,-216 128.56,-252"/>
<text text-anchor="middle" x="64.19" y="-229.8" font-family="Times,serif" font-size="14.00">aws_subnet.subnet1</text>
</g>
<!-- [root] aws_subnet.subnet1&#45;&gt;[root] aws_vpc.environment&#45;example&#45;two -->
<g id="edge4" class="edge">
<title>[root] aws_subnet.subnet1&#45;&gt;[root] aws_vpc.environment&#45;example&#45;two</title>
<path fill="none" stroke="black" d="M86.74,-215.87C120.16,-190.5 182.9,-142.85 220.48,-114.32"/>
<polygon fill="black" stroke="black" points="222.7,-117.02 228.55,-108.19 218.47,-111.45 222.7,-117.02"/>
</g>
<!-- [root] aws_subnet.subnet2&#45;&gt;[root] aws_vpc.environment&#45;example&#45;two -->
<g id="edge5" class="edge">
<title>[root] aws_subnet.subnet2&#45;&gt;[root] aws_vpc.environment&#45;example&#45;two</title>
<path fill="none" stroke="black" d="M332.01,-143.88C318.15,-134.81 300.95,-123.55 285.98,-113.76"/>
<polygon fill="black" stroke="black" points="287.75,-110.74 277.46,-108.19 283.92,-116.59 287.75,-110.74"/>
</g>
<!-- [root] provider.aws -->
<g id="node7" class="node">
<title>[root] provider.aws</title>
<polygon fill="none" stroke="black" points="356.19,-36 277.58,-18 356.19,0 434.8,-18 356.19,-36"/>
<text text-anchor="middle" x="356.19" y="-13.8" font-family="Times,serif" font-size="14.00">provider.aws</text>
</g>
<!-- [root] aws_vpc.environment&#45;example&#45;two&#45;&gt;[root] provider.aws -->
<g id="edge6" class="edge">
<title>[root] aws_vpc.environment&#45;example&#45;two&#45;&gt;[root] provider.aws</title>
<path fill="none" stroke="black" d="M276.87,-71.88C292.55,-61.43 312.58,-48.07 328.6,-37.39"/>
<polygon fill="black" stroke="black" points="330.64,-40.24 337.02,-31.78 326.76,-34.41 330.64,-40.24"/>
</g>
<!-- [root] data.aws_ami.latest&#45;ubuntu&#45;&gt;[root] provider.aws -->
<g id="edge7" class="edge">
<title>[root] data.aws_ami.latest&#45;ubuntu&#45;&gt;[root] provider.aws</title>
<path fill="none" stroke="black" d="M436.26,-71.88C420.43,-61.43 400.21,-48.07 384.04,-37.39"/>
<polygon fill="black" stroke="black" points="385.81,-34.37 375.53,-31.78 381.95,-40.21 385.81,-34.37"/>
</g>
<!-- [root] meta.count&#45;boundary (EachMode fixup) -->
<g id="node8" class="node">
<title>[root] meta.count&#45;boundary (EachMode fixup)</title>
<ellipse fill="none" stroke="black" cx="411.19" cy="-306" rx="174.79" ry="18"/>
<text text-anchor="middle" x="411.19" y="-301.8" font-family="Times,serif" font-size="14.00">[root] meta.count&#45;boundary (EachMode fixup)</text>
</g>
<!-- [root] meta.count&#45;boundary (EachMode fixup)&#45;&gt;[root] aws_instance.secondserver -->
<g id="edge8" class="edge">
<title>[root] meta.count&#45;boundary (EachMode fixup)&#45;&gt;[root] aws_instance.secondserver</title>
<path fill="none" stroke="black" d="M423.55,-287.7C429.42,-279.47 436.56,-269.48 443.03,-260.42"/>
<polygon fill="black" stroke="black" points="446.01,-262.28 448.97,-252.1 440.31,-258.21 446.01,-262.28"/>
</g>
<!-- [root] meta.count&#45;boundary (EachMode fixup)&#45;&gt;[root] aws_security_group.subnetsecurity -->
<g id="edge9" class="edge">
<title>[root] meta.count&#45;boundary (EachMode fixup)&#45;&gt;[root] aws_security_group.subnetsecurity</title>
<path fill="none" stroke="black" d="M373.74,-288.41C352.01,-278.78 324.41,-266.55 301.1,-256.23"/>
<polygon fill="black" stroke="black" points="302.3,-252.93 291.74,-252.08 299.46,-259.33 302.3,-252.93"/>
</g>
<!-- [root] meta.count&#45;boundary (EachMode fixup)&#45;&gt;[root] aws_subnet.subnet1 -->
<g id="edge10" class="edge">
<title>[root] meta.count&#45;boundary (EachMode fixup)&#45;&gt;[root] aws_subnet.subnet1</title>
<path fill="none" stroke="black" d="M329.5,-290.03C277.39,-280.29 208.18,-266.99 138.48,-252.24"/>
<polygon fill="black" stroke="black" points="139.15,-248.81 128.65,-250.15 137.7,-255.65 139.15,-248.81"/>
</g>
<!-- [root] provider.aws (close) -->
<g id="node9" class="node">
<title>[root] provider.aws (close)</title>
<ellipse fill="none" stroke="black" cx="114.19" cy="-306" rx="104.33" ry="18"/>
<text text-anchor="middle" x="114.19" y="-301.8" font-family="Times,serif" font-size="14.00">[root] provider.aws (close)</text>
</g>
<!-- [root] provider.aws (close)&#45;&gt;[root] aws_instance.secondserver -->
<g id="edge11" class="edge">
<title>[root] provider.aws (close)&#45;&gt;[root] aws_instance.secondserver</title>
<path fill="none" stroke="black" d="M179.46,-291.83C232.44,-281.14 307.85,-265.93 367.32,-253.94"/>
<polygon fill="black" stroke="black" points="368.36,-257.3 377.47,-251.89 366.98,-250.43 368.36,-257.3"/>
</g>
<!-- [root] provider.aws (close)&#45;&gt;[root] aws_security_group.subnetsecurity -->
<g id="edge12" class="edge">
<title>[root] provider.aws (close)&#45;&gt;[root] aws_security_group.subnetsecurity</title>
<path fill="none" stroke="black" d="M146.43,-288.76C165.34,-279.24 189.49,-267.08 210.03,-256.73"/>
<polygon fill="black" stroke="black" points="211.83,-259.75 219.18,-252.12 208.68,-253.5 211.83,-259.75"/>
</g>
<!-- [root] provider.aws (close)&#45;&gt;[root] aws_subnet.subnet1 -->
<g id="edge13" class="edge">
<title>[root] provider.aws (close)&#45;&gt;[root] aws_subnet.subnet1</title>
<path fill="none" stroke="black" d="M102.08,-288.05C96.21,-279.84 89.04,-269.79 82.52,-260.66"/>
<polygon fill="black" stroke="black" points="85.19,-258.38 76.53,-252.28 79.49,-262.45 85.19,-258.38"/>
</g>
<!-- [root] root -->
<g id="node10" class="node">
<title>[root] root</title>
<ellipse fill="none" stroke="black" cx="262.19" cy="-378" rx="46.9" ry="18"/>
<text text-anchor="middle" x="262.19" y="-373.8" font-family="Times,serif" font-size="14.00">[root] root</text>
</g>
<!-- [root] root&#45;&gt;[root] meta.count&#45;boundary (EachMode fixup) -->
<g id="edge14" class="edge">
<title>[root] root&#45;&gt;[root] meta.count&#45;boundary (EachMode fixup)</title>
<path fill="none" stroke="black" d="M290.56,-363.67C311.98,-353.61 341.77,-339.61 366.39,-328.05"/>
<polygon fill="black" stroke="black" points="367.98,-331.17 375.54,-323.75 365.01,-324.83 367.98,-331.17"/>
</g>
<!-- [root] root&#45;&gt;[root] provider.aws (close) -->
<g id="edge15" class="edge">
<title>[root] root&#45;&gt;[root] provider.aws (close)</title>
<path fill="none" stroke="black" d="M233.65,-363.5C211.98,-353.25 181.81,-338.98 157.21,-327.35"/>
<polygon fill="black" stroke="black" points="158.62,-324.14 148.08,-323.03 155.63,-330.47 158.62,-324.14"/>
</g>
</g>
</svg>
